<?xml version="1.0" encoding="UTF-8"?>
<svg version="1.1" xmlns="http://www.w3.org/2000/svg" width="120" height="120">
<path d="M0 0 C14.1599139 0.14390156 25.96315143 4.9772702 36.5 14.375 C43.3898371 21.72969357 48.15853812 31.6918882 50.8125 41.3125 C59.93605654 38.53660939 67.44944015 33.74629782 72.55078125 25.50390625 C73.74346282 23.13534144 74.83505286 20.77669568 75.8125 18.3125 C69.76010269 18.3125 65.06514806 21.79918883 60.875 25.9375 C59.16406357 27.72248607 57.918633 29.10023399 56.8125 31.3125 C56.1525 31.3125 55.4925 31.3125 54.8125 31.3125 C53.77448445 29.42601956 52.75766833 27.52786344 51.75 25.625 C51.18152344 24.56925781 50.61304688 23.51351562 50.02734375 22.42578125 C48.688295 18.99419973 48.40123103 17.68946504 49.8125 14.3125 C58.366078 5.83916194 70.47004311 0.53579917 82.4609375 0.21484375 C83.69070312 0.22644531 84.92046875 0.23804688 86.1875 0.25 C87.43273437 0.25902344 88.67796875 0.26804688 89.9609375 0.27734375 C91.37246094 0.29474609 91.37246094 0.29474609 92.8125 0.3125 C93.454176 16.37816574 90.63823094 30.59493195 79.4296875 42.76171875 C71.28523754 50.57173477 61.89114438 55.34693406 50.8125 57.3125 C50.82410156 58.31152344 50.83570313 59.31054688 50.84765625 60.33984375 C50.85667969 61.63019531 50.86570313 62.92054687 50.875 64.25 C50.88660156 65.53777344 50.89820313 66.82554688 50.91015625 68.15234375 C50.8125 71.3125 50.8125 71.3125 49.8125 72.3125 C45.14404772 72.45676614 40.48384047 72.35458415 35.8125 72.3125 C35.8125 67.3625 35.8125 62.4125 35.8125 57.3125 C34.059375 56.94125 32.30625 56.57 30.5 56.1875 C17.4786513 52.86713259 7.54262653 45.56695346 -0.0625 34.4375 C-5.78805201 24.40763229 -8.04015064 12.77312772 -7.1875 1.3125 C-5.33710505 -0.53789495 -2.48524425 0.05240804 0 0 Z M9.8125 16.3125 C10.1950108 23.77146065 14.80355209 29.74734077 20.1875 34.625 C23.67906545 37.40273429 27.53131328 39.96299549 31.8125 41.3125 C32.8025 40.9825 33.7925 40.6525 34.8125 40.3125 C29.85300341 29.40599643 24.74224397 22.68719258 13.8125 17.3125 C11.62314444 16.64638644 11.62314444 16.64638644 9.8125 16.3125 Z " fill="#84B64C" transform="translate(17.1875,47.6875)"/>
<path d="M0 0 C4.95 0 9.9 0 15 0 C15.17327015 7.01077689 15.30017976 14.02030316 15.38452148 21.03271484 C15.41968533 23.41705031 15.46742616 25.80123526 15.52807617 28.18505859 C15.61316884 31.61593769 15.65273044 35.04481937 15.68359375 38.4765625 C15.71972275 39.53928375 15.75585175 40.602005 15.79307556 41.69692993 C15.79692587 48.98354864 15.79692587 48.98354864 13.39505005 52.04705811 C11.66287305 53.54269311 9.95849173 54.82094345 8 56 C4.62477327 54.55347426 2.32235223 52.86019871 0 50 C-0.48101807 47.62078857 -0.48101807 47.62078857 -0.45410156 44.95605469 C-0.45379944 43.95531921 -0.45349731 42.95458374 -0.45318604 41.92352295 C-0.43254089 40.85047913 -0.41189575 39.7774353 -0.390625 38.671875 C-0.38496521 37.56773254 -0.37930542 36.46359009 -0.37347412 35.32598877 C-0.35108768 31.80021774 -0.30088496 28.27546376 -0.25 24.75 C-0.22993803 22.35938968 -0.21168674 19.96876342 -0.1953125 17.578125 C-0.1512151 11.71835826 -0.08216998 5.85935155 0 0 Z " fill="#EE816A" transform="translate(53,2)"/>
<path d="M0 0 C2.64 0 5.28 0 8 0 C8 13.86 8 27.72 8 42 C3 41 -2 40 -7 39 C-6.69220422 30.12009187 -5.55242296 21.49955216 -4.0625 12.75 C-3.89266602 11.72575928 -3.72283203 10.70151855 -3.54785156 9.64624023 C-3.37866211 8.68532471 -3.20947266 7.72440918 -3.03515625 6.734375 C-2.8844165 5.87038086 -2.73367676 5.00638672 -2.57836914 4.11621094 C-2 2 -2 2 0 0 Z " fill="#F07C62" transform="translate(32,2)"/>
<path d="M0 0 C7 0 7 0 8.84863281 1.56054688 C10.33177714 4.70295105 10.87317469 7.59767611 11.421875 11.03125 C11.53098206 11.70418091 11.64008911 12.37711182 11.75250244 13.07043457 C11.97968841 14.48830194 12.20124055 15.90708218 12.41748047 17.32666016 C12.74925508 19.4951312 13.101731 21.6594918 13.45703125 23.82421875 C15.13858812 34.44564753 15.13858812 34.44564753 14 39 C9.38 39.99 4.76 40.98 0 42 C0 28.14 0 14.28 0 0 Z " fill="#E98670" transform="translate(81,2)"/>
<path d="M0 0 C1.65 0.33 3.3 0.66 5 1 C5.08302368 1.99797607 5.08302368 1.99797607 5.16772461 3.01611328 C5.42178083 6.05262713 5.67960673 9.08880973 5.9375 12.125 C6.02451172 13.17171875 6.11152344 14.2184375 6.20117188 15.296875 C6.62349123 20.23957562 7.06319868 25.12188144 8 30 C7.01 30.33 6.02 30.66 5 31 C5 32.98 5 34.96 5 37 C2.69 37.66 0.38 38.32 -2 39 C-2 29.76 -2 20.52 -2 11 C-0.35 10.67 1.3 10.34 3 10 C3 7.03 3 4.06 3 1 C2.01 0.67 1.02 0.34 0 0 Z " fill="#F2775E" transform="translate(85,3)"/>
<path d="M0 0 C0 0.66 0 1.32 0 2 C-2.5614657 4.29648649 -3.47967572 5 -7 5 C-6.67 5.99 -6.34 6.98 -6 8 C-5.01 8 -4.02 8 -3 8 C-3 8.66 -3 9.32 -3 10 C-4.65 10.33 -6.3 10.66 -8 11 C-7.649375 11.78375 -7.29875 12.5675 -6.9375 13.375 C-6.628125 14.24125 -6.31875 15.1075 -6 16 C-6.33 16.66 -6.66 17.32 -7 18 C-5.68 18.66 -4.36 19.32 -3 20 C-4.61594832 22.04119788 -6.2856382 24.04072937 -8 26 C-8.66 26 -9.32 26 -10 26 C-11.03801555 24.11351956 -12.05483167 22.21536344 -13.0625 20.3125 C-13.63097656 19.25675781 -14.19945313 18.20101562 -14.78515625 17.11328125 C-16.12951378 13.66809491 -16.4585012 12.37904667 -15 9 C-12.56640625 6.796875 -12.56640625 6.796875 -9.5625 4.75 C-8.57378906 4.06421875 -7.58507812 3.3784375 -6.56640625 2.671875 C-2.46495327 0 -2.46495327 0 0 0 Z " fill="#87B753" transform="translate(82,53)"/>
<path d="M0 0 C0.33 0 0.66 0 1 0 C1 13.86 1 27.72 1 42 C-4 41 -9 40 -14 39 C-14 36.69 -14 34.38 -14 32 C-13.34 32.99 -12.68 33.98 -12 35 C-11.01 35 -10.02 35 -9 35 C-9 34.01 -9 33.02 -9 32 C-8.34 32 -7.68 32 -7 32 C-7 33.32 -7 34.64 -7 36 C-5.05925139 35.72382467 -5.05925139 35.72382467 -3 35 C-0.62931088 31.44396632 -0.65534892 28.82006655 -0.5859375 24.70703125 C-0.56657135 24.00100266 -0.5472052 23.29497406 -0.5272522 22.56755066 C-0.46754776 20.31598939 -0.4211086 18.06437672 -0.375 15.8125 C-0.33681171 14.28448311 -0.29775948 12.75648755 -0.2578125 11.22851562 C-0.16185404 7.48585065 -0.07778989 3.7430849 0 0 Z " fill="#F3B6AA" transform="translate(39,2)"/>
<path d="M0 0 C2.31 0 4.62 0 7 0 C7 13.53 7 27.06 7 41 C6.67 41 6.34 41 6 41 C5.67 30.11 5.34 19.22 5 8 C2.21081851 6.89459074 2.21081851 6.89459074 0 7 C-1.62514468 8.45833358 -1.62514468 8.45833358 -3 10 C-2.25 2.25 -2.25 2.25 0 0 Z " fill="#DE8471" transform="translate(32,2)"/>
<path d="M0 0 C0.33 0.99 0.66 1.98 1 3 C1.99 3.33 2.98 3.66 4 4 C3 7 3 7 0.85546875 8.203125 C-0.02496094 8.54859375 -0.90539062 8.8940625 -1.8125 9.25 C-2.68519531 9.60578125 -3.55789062 9.9615625 -4.45703125 10.328125 C-7.13641236 11.03604136 -8.43212123 10.9337741 -11 10 C-10.34 9.67 -9.68 9.34 -9 9 C-8.63451555 7.67511887 -8.3062434 6.33981486 -8 5 C-7.3125 2.8125 -7.3125 2.8125 -6 1 C-2.875 0.25 -2.875 0.25 0 0 Z " fill="#8BB956" transform="translate(81,93)"/>
<path d="M0 0 C0.33 0 0.66 0 1 0 C1.3432555 3.39267284 1.61535456 6.78748766 1.875 10.1875 C2.02195312 11.62706055 2.02195312 11.62706055 2.171875 13.09570312 C2.65763091 20.11487607 2.65763091 20.11487607 0.66894531 22.79150391 C-0.9921875 24.17578125 -0.9921875 24.17578125 -4 26 C-7.36720387 24.60667426 -8.9859524 23.0210714 -11 20 C-10.01 19.67 -9.02 19.34 -8 19 C-8 19.66 -8 20.32 -8 21 C-7.05125 20.67 -6.1025 20.34 -5.125 20 C-2 19 -2 19 0 19 C0 12.73 0 6.46 0 0 Z " fill="#EA8370" transform="translate(65,32)"/>
<path d="M0 0 C1.93166016 0.01740234 1.93166016 0.01740234 3.90234375 0.03515625 C5.19269531 0.04417969 6.48304687 0.05320313 7.8125 0.0625 C8.81152344 0.07410156 9.81054688 0.08570313 10.83984375 0.09765625 C10.50984375 0.75765625 10.17984375 1.41765625 9.83984375 2.09765625 C5.87984375 2.09765625 1.91984375 2.09765625 -2.16015625 2.09765625 C-1.97453125 3.80953125 -1.78890625 5.52140625 -1.59765625 7.28515625 C-1.17739373 11.1609106 -1.22412205 14.30498433 -2.16015625 18.09765625 C-2.49015625 18.09765625 -2.82015625 18.09765625 -3.16015625 18.09765625 C-3.98280456 12.44194913 -4.58580384 6.81886062 -4.16015625 1.09765625 C-3.16015625 0.09765625 -3.16015625 0.09765625 0 0 Z " fill="#A7C684" transform="translate(14.16015625,47.90234375)"/>
<path d="M0 0 C0.33 0 0.66 0 1 0 C1.73965351 4.35844156 2.46979504 8.7183377 3.19116211 13.07983398 C3.4379 14.56334354 3.68723232 16.04642401 3.93920898 17.52905273 C4.30094372 19.66021973 4.65332072 21.79275552 5.00390625 23.92578125 C5.21861572 25.20880127 5.4333252 26.49182129 5.65454102 27.8137207 C6 31 6 31 5 34 C3.46657025 32.46657025 3.43500179 30.72524299 3 28.625 C2.45118408 25.99239863 1.85272538 23.55817615 1 21 C0.85284801 19.37432921 0.75278133 17.74413143 0.68359375 16.11328125 C0.64169922 15.17548828 0.59980469 14.23769531 0.55664062 13.27148438 C0.51732422 12.29501953 0.47800781 11.31855469 0.4375 10.3125 C0.39431641 9.32443359 0.35113281 8.33636719 0.30664062 7.31835938 C0.20058346 4.87904454 0.09852286 2.43962887 0 0 Z " fill="#EBA99A" transform="translate(90,6)"/>
<path d="M0 0 C0.66 0 1.32 0 2 0 C2.29296875 6.0546875 2.29296875 6.0546875 2 8 C1.01 8.66 0.02 9.32 -1 10 C-1.33 9.34 -1.66 8.68 -2 8 C-2.33 9.98 -2.66 11.96 -3 14 C-3.33 13.01 -3.66 12.02 -4 11 C-4.99 11 -5.98 11 -7 11 C-5.68822142 8.0737247 -4.24710766 6.24710766 -2 4 C-0.82425289 1.90010348 -0.82425289 1.90010348 0 0 Z " fill="#7CB33F" transform="translate(57,72)"/>
<path d="M0 0 C0.66 0 1.32 0 2 0 C2 0.66 2 1.32 2 2 C3.32 2.66 4.64 3.32 6 4 C4.38405168 6.04119788 2.7143618 8.04072937 1 10 C0.34 10 -0.32 10 -1 10 C-2.15837626 5.94568308 -1.83691257 3.78187881 0 0 Z " fill="#94BD68" transform="translate(73,69)"/>
<path d="M0 0 C1.13199353 0.9080162 2.25532363 1.82683826 3.375 2.75 C4.00148438 3.26046875 4.62796875 3.7709375 5.2734375 4.296875 C7.08312318 6.08199481 8.00117455 7.67949644 9 10 C6 10 6 10 3 9 C2.67 9.99 2.34 10.98 2 12 C2.226875 11.0925 2.45375 10.185 2.6875 9.25 C3.33556459 6.01560852 3.33556459 6.01560852 1.5625 3.75 C1.046875 3.1725 0.53125 2.595 0 2 C0 1.34 0 0.68 0 0 Z " fill="#97BE6A" transform="translate(49,59)"/>
<path d="M0 0 C1.98 0 3.96 0 6 0 C6.66 1.32 7.32 2.64 8 4 C7.01 4 6.02 4 5 4 C5 5.32 5 6.64 5 8 C3.68 7.67 2.36 7.34 1 7 C0.67 4.69 0.34 2.38 0 0 Z " fill="#7EB23F" transform="translate(74,64)"/>
<path d="M0 0 C0.99 0.33 1.98 0.66 3 1 C2.67 1.66 2.34 2.32 2 3 C2.27942455 4.67654729 2.60828247 6.34608154 3 8 C1.35 7.67 -0.3 7.34 -2 7 C-2.33 5.68 -2.66 4.36 -3 3 C-2.34 3 -1.68 3 -1 3 C-0.67 2.01 -0.34 1.02 0 0 Z " fill="#7CB439" transform="translate(68,92)"/>
<path d="M0 0 C0.66 0 1.32 0 2 0 C2 0.66 2 1.32 2 2 C3.65 1.34 5.3 0.68 7 0 C6.67 2.31 6.34 4.62 6 7 C2.63279613 5.60667426 1.0140476 4.0210714 -1 1 C-0.67 0.67 -0.34 0.34 0 0 Z " fill="#E78D75" transform="translate(55,51)"/>
<path d="M0 0 C2.64 1.98 5.28 3.96 8 6 C7.01 6.66 6.02 7.32 5 8 C4.34 7.34 3.68 6.68 3 6 C1.68252676 5.30251417 0.35085807 4.63040043 -1 4 C-0.67 2.68 -0.34 1.36 0 0 Z " fill="#94BB64" transform="translate(33,78)"/>
<path d="M0 0 C2.9375 0.8125 2.9375 0.8125 6 2 C6.33 2.99 6.66 3.98 7 5 C6.34 5.66 5.68 6.32 5 7 C3.29115995 5.37660195 1.62553283 3.70680947 0 2 C0 1.34 0 0.68 0 0 Z " fill="#95BA66" transform="translate(25,89)"/>
<path d="M0 0 C-0.33 1.98 -0.66 3.96 -1 6 C-2.32 6.33 -3.64 6.66 -5 7 C-4.34 5.35 -3.68 3.7 -3 2 C-3.99 1.67 -4.98 1.34 -6 1 C-3 0 -3 0 0 0 Z " fill="#95BE67" transform="translate(74,88)"/>
<path d="M0 0 C1.65 0 3.3 0 5 0 C5 0.66 5 1.32 5 2 C5.99 1.67 6.98 1.34 8 1 C8 1.66 8 2.32 8 3 C6.35 3.66 4.7 4.32 3 5 C1.5 3.625 1.5 3.625 0 2 C0 1.34 0 0.68 0 0 Z " fill="#7CB33F" transform="translate(42,60)"/>
<path d="M0 0 C0 0.66 0 1.32 0 2 C-3.07115285 4.95303159 -5.8333396 5.52651586 -10 6 C-4.4 0 -4.4 0 0 0 Z " fill="#9BC173" transform="translate(82,53)"/>
<path d="M0 0 C0.99 0.33 1.98 0.66 3 1 C2.67 1.99 2.34 2.98 2 4 C2.99 4.33 3.98 4.66 5 5 C4.67 6.32 4.34 7.64 4 9 C0 3.375 0 3.375 0 0 Z " fill="#A3C27E" transform="translate(15,75)"/>
<path d="M0 0 C0.66 0.99 1.32 1.98 2 3 C1.23056641 6.15467773 0.67047831 7.58588104 -2.125 9.3125 C-3.053125 9.6528125 -3.053125 9.6528125 -4 10 C-2.66666667 6.66666667 -1.33333333 3.33333333 0 0 Z " fill="#9BBD72" transform="translate(93,66)"/>
<path d="M0 0 C0.66 0.66 1.32 1.32 2 2 C1.60495559 4.9628331 0.40182371 7.38326241 -1 10 C-1.125 2.25 -1.125 2.25 0 0 Z " fill="#E27760" transform="translate(27,29)"/>
</svg>
